<?xml version="1.0" encoding="utf-8"?>
<!-- Generator: Adobe Illustrator 26.3.1, SVG Export Plug-In . SVG Version: 6.00 Build 0)  -->
<svg width="100%" height="100%" version="1.1" id="Layer_1" xmlns="http://www.w3.org/2000/svg" xmlns:xlink="http://www.w3.org/1999/xlink" x="0px" y="0px"
	 viewBox="0 0 107.7 52.6" style="enable-background:new 0 0 107.7 52.6;" xml:space="preserve">
<style type="text/css">
	.st0{fill:#FFFFFF;}
</style>
<g id="BRxFDj_00000082333710562049380030000018419425441118749831_">
	<g>
		<path d="M66.1,37.6c0-1.4,0-2.7,0-4c-1.4,0-2.7,0-4,0c0-1.4,0-2.7,0-4.1c-1.4,0-2.7,0-4.1,0c0-2.7,0-5.4,0-8.1c-2.8,0-5.4,0-8.2,0
			c0,2.7,0,5.3,0,8.1c-1.4,0-2.7,0-4.1,0c0,1.4,0,2.7,0,4.1c-1.4,0-2.7,0-4.1,0c0,1.4,0,2.7,0,4.1c-9.5,0-19,0-28.5,0
			c0-1.3,0-2.6,0-4c-1.4,0-2.7,0-4.1,0c0-1.4,0-2.7,0-4.1c-1.4,0-2.7,0-4.1,0c0-1.4,0-2.7,0-4.1c-1.4,0-2.7,0-4,0c0-2.7,0-5.4,0-8.1
			c35.3,0,70.6,0,105.9,0c0,2.7,0,5.3,0,8.1c-1.3,0-2.6,0-4,0c0,1.4,0,2.7,0,4.1c-1.4,0-2.7,0-4.1,0c0,1.4,0,2.7,0,4.1
			c-1.4,0-2.7,0-4.1,0c0,1.4,0,2.7,0,4C85.1,37.6,75.6,37.6,66.1,37.6z M82.9,29.5c0,1.3,0,2.7,0,4c1.4,0,2.7,0,4,0c0-1.4,0-2.7,0-4
			C85.5,29.5,84.2,29.5,82.9,29.5c0-1.3,0-2.7,0-4.1c-1.4,0-2.7,0-4.1,0c0-1.3,0-2.7,0-4c-1.4,0-2.7,0-4.1,0c0,1.4,0,2.7,0,4
			c-1.4,0-2.7,0-4.1,0c0-1.3,0-2.7,0-4c-1.4,0-2.7,0-4,0c0,1.4,0,2.7,0,4c1.4,0,2.7,0,4,0c0,1.3,0,2.7,0,4.1c1.4,0,2.7,0,4.1,0
			c0,1.3,0,2.7,0,4c1.4,0,2.7,0,4.1,0c0-1.4,0-2.7,0-4C80.2,29.5,81.5,29.5,82.9,29.5z M25.3,29.5c0,1.3,0,2.7,0,4c1.4,0,2.7,0,4,0
			c0-1.4,0-2.7,0-4C28,29.5,26.6,29.5,25.3,29.5c0-1.3,0-2.7,0-4.1c-1.4,0-2.7,0-4.1,0c0-1.3,0-2.7,0-4c-1.4,0-2.7,0-4.1,0
			c0,1.4,0,2.7,0,4c-1.4,0-2.7,0-4.1,0c0-1.3,0-2.7,0-4c-1.4,0-2.7,0-4,0c0,1.4,0,2.7,0,4c1.4,0,2.7,0,4,0c0,1.3,0,2.7,0,4.1
			c1.4,0,2.7,0,4.1,0c0,1.3,0,2.7,0,4c1.4,0,2.7,0,4.1,0c0-1.4,0-2.7,0-4C22.6,29.5,24,29.5,25.3,29.5z"/>
		<path class="st0" d="M13.1,25.4c-1.3,0-2.7,0-4,0c0-1.3,0-2.7,0-4c1.3,0,2.6,0,4,0C13.1,22.7,13.1,24,13.1,25.4L13.1,25.4z"/>
		<path class="st0" d="M17.2,25.4c0-1.3,0-2.7,0-4c1.3,0,2.7,0,4.1,0c0,1.3,0,2.7,0,4l0,0C19.9,25.4,18.5,25.4,17.2,25.4L17.2,25.4z
			"/>
		<path class="st0" d="M70.7,25.4c-1.3,0-2.7,0-4,0c0-1.3,0-2.7,0-4c1.3,0,2.6,0,4,0C70.6,22.7,70.6,24,70.7,25.4L70.7,25.4z"/>
		<path class="st0" d="M74.7,25.4c0-1.3,0-2.7,0-4c1.3,0,2.7,0,4.1,0c0,1.3,0,2.7,0,4c0,0,0,0,0,0C77.5,25.4,76.1,25.4,74.7,25.4
			L74.7,25.4z"/>
		<path class="st0" d="M13.1,25.4c1.4,0,2.7,0,4.1,0c0,0,0,0,0,0c0,1.4,0,2.7,0,4.1l0,0c-1.3,0-2.7,0-4.1,0
			C13.1,28.1,13.1,26.7,13.1,25.4C13.1,25.4,13.1,25.4,13.1,25.4z"/>
		<path class="st0" d="M21.2,25.4c1.3,0,2.7,0,4.1,0c0,1.4,0,2.7,0,4.1l0,0c-1.4,0-2.7,0-4.1,0l0,0C21.3,28.1,21.3,26.7,21.2,25.4
			L21.2,25.4z"/>
		<path class="st0" d="M70.6,25.4c1.4,0,2.7,0,4.1,0c0,0,0,0,0,0c0,1.4,0,2.7,0,4.1l0,0c-1.3,0-2.7,0-4.1,0
			C70.7,28.1,70.7,26.7,70.6,25.4C70.7,25.4,70.6,25.4,70.6,25.4z"/>
		<path class="st0" d="M82.9,29.5c-1.4,0-2.7,0-4.1,0l0,0c0-1.4,0-2.7,0-4.1c0,0,0,0,0,0c1.3,0,2.7,0,4.1,0
			C82.9,26.8,82.9,28.1,82.9,29.5L82.9,29.5z"/>
		<path class="st0" d="M21.2,29.5c0,1.3,0,2.7,0,4c-1.3,0-2.7,0-4.1,0c0-1.3,0-2.7,0-4c0,0,0,0,0,0C18.5,29.5,19.9,29.5,21.2,29.5
			L21.2,29.5z"/>
		<path class="st0" d="M25.3,29.5c1.3,0,2.7,0,4,0c0,1.3,0,2.7,0,4c-1.3,0-2.6,0-4,0C25.3,32.1,25.3,30.8,25.3,29.5
			C25.3,29.5,25.3,29.5,25.3,29.5z"/>
		<path class="st0" d="M78.8,29.5c0,1.3,0,2.7,0,4c-1.3,0-2.7,0-4.1,0c0-1.3,0-2.7,0-4c0,0,0,0,0,0C76.1,29.5,77.5,29.5,78.8,29.5
			L78.8,29.5z"/>
		<path class="st0" d="M82.9,29.5c1.3,0,2.7,0,4,0c0,1.3,0,2.7,0,4c-1.3,0-2.6,0-4,0C82.9,32.1,82.9,30.8,82.9,29.5
			C82.9,29.5,82.9,29.5,82.9,29.5z"/>
		<path d="M21.3,29.5c-1.4,0-2.7,0-4.1,0c0-1.4,0-2.7,0-4.1c1.4,0,2.7,0,4.1,0C21.3,26.7,21.3,28.1,21.3,29.5z"/>
		<path d="M78.8,29.5c-1.4,0-2.7,0-4.1,0c0-1.4,0-2.7,0-4.1c1.4,0,2.7,0,4.1,0C78.8,26.7,78.8,28.1,78.8,29.5z"/>
	</g>
</g>
</svg>
